<svg width="24" height="25" viewBox="0 0 24 25" fill="none" xmlns="http://www.w3.org/2000/svg">
<path fill-rule="evenodd" clip-rule="evenodd" d="M17.5 2.5C16.9477 2.5 16.5 2.94775 16.5 3.5V4.5C16.2715 4.49927 16.0338 4.5 15.7866 4.5H13V3.5C13 2.94775 12.5523 2.5 12 2.5C11.4477 2.5 11 2.94775 11 3.5V4.5H8.21344C7.96625 4.5 7.72852 4.49927 7.5 4.5V3.5C7.5 2.94775 7.05231 2.5 6.5 2.5C5.94769 2.5 5.5 2.94775 5.5 3.5V4.5C5.5 4.52161 5.50067 4.54285 5.50201 4.56409C5.42377 4.57092 5.34729 4.57837 5.27258 4.58679C5.21326 4.59338 5.15509 4.60046 5.09802 4.60815C4.26202 4.72009 3.56525 4.95886 3.01282 5.50928C2.46826 6.052 2.22528 6.73657 2.11072 7.45569C2 8.15088 2 8.94849 2 9.77087V16.3079C2 17.5842 2 18.6083 2.10846 19.4126C2.22089 20.2457 2.46039 20.9402 3.01282 21.4907C3.56525 22.0411 4.26202 22.2799 5.09802 22.3918C5.90515 22.5 6.93274 22.5 8.2135 22.5H15.7865C17.0673 22.5 18.0948 22.5 18.902 22.3918C19.738 22.2799 20.4348 22.0411 20.9872 21.4907C21.5396 20.9402 21.7791 20.2457 21.8915 19.4126C22 18.6083 22 17.5842 22 16.3079V9.77087C22 8.94849 22 8.15088 21.8893 7.45569C21.7747 6.73657 21.5317 6.052 20.9872 5.50928C20.4348 4.95886 19.738 4.72009 18.902 4.60815C18.8417 4.6001 18.7801 4.59253 18.7173 4.58557C18.6458 4.57776 18.5727 4.57056 18.498 4.56409C18.4993 4.54285 18.5 4.52161 18.5 4.5V3.5C18.5 2.94775 18.0523 2.5 17.5 2.5ZM3.30841 10.3922C3.30841 9.51404 3.30841 9.07495 3.58215 8.80225C3.8559 8.52942 4.29645 8.52942 5.17755 8.52942H18.8224C19.7036 8.52942 20.1441 8.52942 20.4178 8.80225C20.6916 9.07495 20.6916 9.51404 20.6916 10.3922V16.2598C20.6916 17.5953 20.6902 18.5315 20.5948 19.2389C20.5019 19.9274 20.3308 20.3008 20.062 20.5686C19.7932 20.8365 19.4186 21.007 18.7276 21.0996C18.0178 21.1947 17.0785 21.196 15.7383 21.196H8.26166C6.92151 21.196 5.98218 21.1947 5.2724 21.0996C4.58142 21.007 4.20679 20.8365 3.93799 20.5686C3.66919 20.3008 3.49811 19.9274 3.40521 19.2389C3.30981 18.5315 3.30841 17.5953 3.30841 16.2598V10.3922Z" fill="#1F2533"/>
<path d="M5.95349 12.1977C5.95349 11.5861 5.95349 11.2803 6.12241 11.0744C6.15334 11.0368 6.18789 11.0022 6.22557 10.9713C6.4314 10.8024 6.73722 10.8024 7.34884 10.8024C7.96046 10.8024 8.26628 10.8024 8.47211 10.9713C8.50979 11.0022 8.54434 11.0368 8.57527 11.0744C8.74419 11.2803 8.74419 11.5861 8.74419 12.1977C8.74419 12.8093 8.74419 13.1152 8.57527 13.321C8.54434 13.3587 8.50979 13.3932 8.47211 13.4241C8.26628 13.5931 7.96046 13.5931 7.34884 13.5931C6.73722 13.5931 6.4314 13.5931 6.22557 13.4241C6.18789 13.3932 6.15334 13.3587 6.12241 13.321C5.95349 13.1152 5.95349 12.8093 5.95349 12.1977Z" fill="#1F2533"/>
<path d="M5.95349 16.8489C5.95349 16.2373 5.95349 15.9314 6.12241 15.7256C6.15334 15.6879 6.18789 15.6534 6.22557 15.6225C6.4314 15.4535 6.73722 15.4535 7.34884 15.4535C7.96046 15.4535 8.26628 15.4535 8.47211 15.6225C8.50979 15.6534 8.54434 15.6879 8.57527 15.7256C8.74419 15.9314 8.74419 16.2373 8.74419 16.8489C8.74419 17.4605 8.74419 17.7663 8.57527 17.9721C8.54434 18.0098 8.50979 18.0444 8.47211 18.0753C8.26628 18.2442 7.96046 18.2442 7.34884 18.2442C6.73722 18.2442 6.4314 18.2442 6.22557 18.0753C6.18789 18.0444 6.15334 18.0098 6.12241 17.9721C5.95349 17.7663 5.95349 17.4605 5.95349 16.8489Z" fill="#1F2533"/>
<path d="M10.6047 12.1977C10.6047 11.5861 10.6047 11.2803 10.7736 11.0744C10.8045 11.0368 10.8391 11.0022 10.8767 10.9713C11.0826 10.8024 11.3884 10.8024 12 10.8024C12.6116 10.8024 12.9174 10.8024 13.1233 10.9713C13.161 11.0022 13.1955 11.0368 13.2264 11.0744C13.3954 11.2803 13.3954 11.5861 13.3954 12.1977C13.3954 12.8093 13.3954 13.1152 13.2264 13.321C13.1955 13.3587 13.161 13.3932 13.1233 13.4241C12.9174 13.5931 12.6116 13.5931 12 13.5931C11.3884 13.5931 11.0826 13.5931 10.8767 13.4241C10.8391 13.3932 10.8045 13.3587 10.7736 13.321C10.6047 13.1152 10.6047 12.8093 10.6047 12.1977Z" fill="#1F2533"/>
<path d="M10.6047 16.8489C10.6047 16.2373 10.6047 15.9314 10.7736 15.7256C10.8045 15.6879 10.8391 15.6534 10.8767 15.6225C11.0826 15.4535 11.3884 15.4535 12 15.4535C12.6116 15.4535 12.9174 15.4535 13.1233 15.6225C13.161 15.6534 13.1955 15.6879 13.2264 15.7256C13.3954 15.9314 13.3954 16.2373 13.3954 16.8489C13.3954 17.4605 13.3954 17.7663 13.2264 17.9721C13.1955 18.0098 13.161 18.0444 13.1233 18.0753C12.9174 18.2442 12.6116 18.2442 12 18.2442C11.3884 18.2442 11.0826 18.2442 10.8767 18.0753C10.8391 18.0444 10.8045 18.0098 10.7736 17.9721C10.6047 17.7663 10.6047 17.4605 10.6047 16.8489Z" fill="#1F2533"/>
<path d="M15.2558 12.1977C15.2558 11.5861 15.2558 11.2803 15.4247 11.0744C15.4557 11.0368 15.4902 11.0022 15.5279 10.9713C15.7337 10.8024 16.0395 10.8024 16.6512 10.8024C17.2628 10.8024 17.5686 10.8024 17.7744 10.9713C17.8121 11.0022 17.8467 11.0368 17.8776 11.0744C18.0465 11.2803 18.0465 11.5861 18.0465 12.1977C18.0465 12.8093 18.0465 13.1152 17.8776 13.321C17.8467 13.3587 17.8121 13.3932 17.7744 13.4241C17.5686 13.5931 17.2628 13.5931 16.6512 13.5931C16.0395 13.5931 15.7337 13.5931 15.5279 13.4241C15.4902 13.3932 15.4557 13.3587 15.4247 13.321C15.2558 13.1152 15.2558 12.8093 15.2558 12.1977Z" fill="#1F2533"/>
</svg>
