<svg width="24" height="24" viewBox="0 0 24 24" fill="none" xmlns="http://www.w3.org/2000/svg">
<path fill-rule="evenodd" clip-rule="evenodd" d="M7.29914 4.79535H16.714C18.0069 4.79533 18.928 4.79532 19.589 4.8676C20.2794 4.9431 20.8218 5.10907 21.2573 5.54461C21.6929 5.98015 21.8588 6.52251 21.9343 7.21296C22.0066 7.87392 22.0066 8.79507 22.0066 10.0879V14.7953C22.0066 14.8406 22.0066 14.8851 22.0066 14.929C22.0067 16.1471 22.0067 16.8547 21.9281 17.3055C21.8811 17.5747 21.8005 17.8007 21.6574 18.0129C21.5464 18.1774 21.4042 18.3187 21.2931 18.4291C21.2808 18.4413 21.2688 18.4532 21.2573 18.4647C20.8218 18.9002 20.2794 19.0662 19.589 19.1417C18.928 19.214 18.0069 19.214 16.714 19.2139H7.29913C6.00629 19.214 5.08515 19.214 4.4242 19.1417C3.73375 19.0662 3.19139 18.9002 2.75585 18.4647C2.32032 18.0291 2.15434 17.4868 2.07884 16.7963C2.00657 16.1354 2.00658 15.2142 2.00659 13.9214V10.0879C2.00658 8.79505 2.00657 7.87391 2.07884 7.21296C2.15434 6.52251 2.32032 5.98015 2.75585 5.54461C3.19139 5.10907 3.73375 4.9431 4.4242 4.8676C5.08515 4.79532 6.0063 4.79533 7.29914 4.79535ZM4.57588 6.25468C4.0205 6.31541 3.85189 6.42189 3.74251 6.53127C3.63313 6.64065 3.52665 6.80926 3.46592 7.36463C3.40301 7.93995 3.40194 8.78234 3.40194 10.1442V13.8651C3.40194 15.227 3.40301 16.0693 3.46592 16.6447C3.52665 17.2 3.63313 17.3686 3.74251 17.478C3.85189 17.5874 4.0205 17.6939 4.57588 17.7546C5.15119 17.8175 5.99358 17.8186 7.35543 17.8186H16.6577C18.0196 17.8186 18.862 17.8175 19.4373 17.7546C19.9927 17.6939 20.1613 17.5874 20.2707 17.478C20.4283 17.3204 20.4707 17.2768 20.5007 17.2325C20.5109 17.2173 20.5327 17.1851 20.5535 17.0657C20.6082 16.752 20.6112 16.1791 20.6112 14.7953V10.1442C20.6112 8.78234 20.6102 7.93995 20.5472 7.36463C20.4865 6.80926 20.38 6.64065 20.2707 6.53127C20.1613 6.42189 19.9927 6.31541 19.4373 6.25468C18.862 6.19177 18.0196 6.1907 16.6577 6.1907H7.35543C5.99358 6.1907 5.15119 6.19177 4.57588 6.25468ZM5.2624 9.21395C5.2624 8.82864 5.57476 8.51628 5.96008 8.51628H18.0531C18.4384 8.51628 18.7508 8.82864 18.7508 9.21395C18.7508 9.59927 18.4384 9.91163 18.0531 9.91163H5.96008C5.57476 9.91163 5.2624 9.59927 5.2624 9.21395Z" fill="#1F2533"/>
</svg>
