<svg width="30" height="30" viewBox="0 0 30 30" fill="none" xmlns="http://www.w3.org/2000/svg">
<path d="M7.5 14.1929C8.74265 14.1929 9.75 13.1854 9.75 11.9429C9.75 10.7003 8.74265 9.69286 7.5 9.69286C6.25735 9.69286 5.25 10.7003 5.25 11.9429C5.25 13.1854 6.25735 14.1929 7.5 14.1929Z" fill="url(#paint0_linear_37_7249)"/>
<path d="M17.25 11.9429C17.25 13.1854 16.2426 14.1929 15 14.1929C13.7574 14.1929 12.75 13.1854 12.75 11.9429C12.75 10.7003 13.7574 9.69286 15 9.69286C16.2426 9.69286 17.25 10.7003 17.25 11.9429Z" fill="url(#paint1_linear_37_7249)"/>
<path d="M22.5 14.1929C23.7426 14.1929 24.75 13.1854 24.75 11.9429C24.75 10.7003 23.7426 9.69286 22.5 9.69286C21.2574 9.69286 20.25 10.7003 20.25 11.9429C20.25 13.1854 21.2574 14.1929 22.5 14.1929Z" fill="url(#paint2_linear_37_7249)"/>
<path fill-rule="evenodd" clip-rule="evenodd" d="M9.34204 0H20.6581C22.5663 0 24.1044 0 25.3141 0.16333C26.5701 0.332885 27.6275 0.6958 28.4674 1.53937C29.3073 2.38312 29.6686 3.44531 29.8374 4.7069C30 5.92144 30 7.4652 30 9.38067V15.1474C30 17.0628 30 18.6068 29.8374 19.8211C29.6686 21.0827 29.3073 22.1449 28.4674 22.9887C27.6275 23.8322 26.5701 24.1952 25.3141 24.3647C24.1044 24.528 22.5662 24.528 20.658 24.528H18.9467C18.7329 24.528 18.5862 24.5284 18.474 24.5321C18.4285 24.5335 18.3886 24.5356 18.3523 24.5383C18.2962 24.5427 18.2655 24.5476 18.2498 24.5509L18.2424 24.5528L18.2369 24.5541L18.2335 24.5555L18.2284 24.5584L18.2222 24.5625C18.2087 24.5713 18.1836 24.5896 18.1409 24.6264C18.045 24.709 17.9258 24.8278 17.7133 25.0413L13.2824 29.492C13.224 29.551 13.1122 29.664 12.9976 29.7495C12.8658 29.8476 12.481 30.0999 11.9683 29.9573C11.4556 29.8147 11.2549 29.3994 11.1921 29.247C11.1376 29.1147 11.0996 28.9601 11.0797 28.8792L11.0745 28.8579L10.2879 25.6975C10.175 25.2438 10.1082 24.9803 10.04 24.791L10.0237 24.7441C9.99683 24.6654 9.98364 24.6269 9.91635 24.5852C9.87305 24.5583 9.85794 24.5575 9.8129 24.5555H9.8107C9.79138 24.5546 9.76666 24.5533 9.73242 24.5498C9.53311 24.5293 9.19794 24.528 8.73239 24.528C7.11429 24.528 5.80966 24.528 4.77063 24.4079C3.6958 24.2836 2.77359 24.0192 1.98834 23.3959C1.8143 23.2577 1.64932 23.1086 1.49442 22.9499C1.36478 22.8169 1.24219 22.677 1.12711 22.5307C0.506561 21.7419 0.243347 20.8156 0.119568 19.7362C0 18.6925 0 17.3818 0 15.7566V9.38048C0 7.4652 0 5.92126 0.162598 4.7069C0.331421 3.44531 0.692688 2.38312 1.53259 1.53937C2.3725 0.6958 3.42993 0.332885 4.68594 0.16333C5.89563 0 7.43381 0 9.34204 0ZM4.96481 2.24707C3.94098 2.38531 3.39871 2.63818 3.01254 3.026C2.62637 3.414 2.3746 3.95855 2.23691 4.98705C2.09528 6.04577 2.09299 7.4489 2.09299 9.46087V15.6918C2.09299 17.3972 2.09464 18.5863 2.19882 19.4956C2.30054 20.3829 2.48813 20.87 2.76929 21.2272C2.8775 21.3649 2.99689 21.4931 3.12607 21.6104C3.1778 21.6575 3.23117 21.7027 3.28601 21.7463C3.64188 22.0288 4.12656 22.2173 5.00995 22.3194C5.91531 22.424 7.09909 22.4256 8.79684 22.4256H8.84116C9.2471 22.4256 9.6265 22.4256 9.94519 22.4582C10.2969 22.4943 10.6713 22.5776 11.0307 22.8061C11.1663 22.8924 11.293 22.9918 11.4092 23.1029C11.7171 23.3977 11.8882 23.7423 12.0084 24.0765C12.1173 24.379 12.2093 24.7489 12.3077 25.1444L12.7763 27.0271L16.2333 23.5547L16.3121 23.475C16.4015 23.3847 16.4929 23.2925 16.588 23.2022C16.834 22.9691 17.1055 22.7492 17.4342 22.6124C17.89 22.4227 18.3805 22.4242 18.835 22.4255L18.9467 22.4256H20.5814C22.5843 22.4256 23.9812 22.4234 25.0352 22.2812C26.059 22.1427 26.6013 21.8899 26.9875 21.5021C27.3736 21.114 27.6254 20.5695 27.763 19.541C27.9047 18.4823 27.907 17.0791 27.907 15.0672V9.46087C27.907 7.4489 27.9047 6.04577 27.763 4.98705C27.6254 3.95855 27.3736 3.414 26.9875 3.026C26.6013 2.63818 26.059 2.38531 25.0352 2.24707C23.9812 2.10461 22.5843 2.10241 20.5814 2.10241H9.41858C7.41568 2.10241 6.01877 2.10461 4.96481 2.24707Z" fill="url(#paint3_linear_37_7249)"/>
<defs>
<linearGradient id="paint0_linear_37_7249" x1="8.5" y1="14.5" x2="9.3211" y2="11.5906" gradientUnits="userSpaceOnUse">
<stop stop-color="#9FFFD7"/>
<stop offset="1" stop-color="white"/>
</linearGradient>
<linearGradient id="paint1_linear_37_7249" x1="14.5" y1="14.5" x2="15.9241" y2="10.6572" gradientUnits="userSpaceOnUse">
<stop stop-color="#9FFFC5"/>
<stop offset="1" stop-color="white"/>
</linearGradient>
<linearGradient id="paint2_linear_37_7249" x1="22" y1="14.5" x2="22.9301" y2="10.6027" gradientUnits="userSpaceOnUse">
<stop stop-color="#9FFFD7"/>
<stop offset="1" stop-color="white"/>
</linearGradient>
<linearGradient id="paint3_linear_37_7249" x1="15" y1="28.2692" x2="15" y2="16.1538" gradientUnits="userSpaceOnUse">
<stop stop-color="#9FFFC0"/>
<stop offset="1" stop-color="white"/>
</linearGradient>
</defs>
</svg>
