<svg width="24" height="24" viewBox="0 0 24 24" fill="none" xmlns="http://www.w3.org/2000/svg">
<path d="M16 22C12.6863 22 10 19.3137 10 16C10 12.6863 12.6863 10 16 10C19.3137 10 22 12.6863 22 16C22 17.4971 21.4517 18.8661 20.545 19.9172C20.8939 21.1552 22 21.8336 22 21.8336C20.5608 22.2432 19.5617 21.8433 18.9697 21.2147C18.094 21.7145 17.0804 22 16 22Z" fill="#687086"/>
<path d="M9.58609 19.8896C8.89686 18.7555 8.49996 17.4241 8.49996 16C8.49996 11.8579 11.8578 8.5 16 8.5C17.4241 8.5 18.7555 8.89692 19.8896 9.58617C19.2113 5.28728 15.4895 2 11 2C6.02944 2 2 6.02944 2 11C2 13.2456 2.82244 15.2991 4.18254 16.8758C3.65919 18.7327 2 19.7503 2 19.7503C4.15875 20.3648 5.65751 19.7649 6.5455 18.8221C7.46906 19.3492 8.49499 19.7174 9.58609 19.8896Z" fill="#687086"/>
</svg>
