<svg width="25" height="24" viewBox="0 0 25 24" fill="none" xmlns="http://www.w3.org/2000/svg">
<path fill-rule="evenodd" clip-rule="evenodd" d="M16.1206 2.3364C15.3069 1.99938 14.4143 1.99963 13.0336 2.00003L10.337 2.00005C8.62749 2.00004 7.27342 2.00003 6.21369 2.1425C5.12307 2.28913 4.24033 2.59808 3.54418 3.29423C2.84803 3.99038 2.53908 4.87312 2.39245 5.96374C2.24997 7.02347 2.24999 8.37754 2.25 10.0871V13.913C2.24999 15.6225 2.24997 16.9766 2.39245 18.0363C2.53908 19.1269 2.84803 20.0097 3.54418 20.7058C4.24033 21.402 5.12307 21.7109 6.21369 21.8575C7.27341 22 8.62748 22 10.337 22H14.1629C15.8724 22 17.2265 22 18.2863 21.8575C19.3769 21.7109 20.2596 21.402 20.9558 20.7058C21.6519 20.0097 21.9609 19.1269 22.1075 18.0363C22.25 16.9766 22.25 15.6225 22.2499 13.913L22.25 11.2164C22.2504 9.8357 22.2506 8.94309 21.9136 8.12944C21.5766 7.3158 20.9452 6.68481 19.9687 5.70881L18.5412 4.28135C17.5652 3.30477 16.9342 2.67342 16.1206 2.3364ZM12.8884 3.3954C14.064 3.3954 14.6937 3.40225 15.1559 3.49582L15.1559 6.57759C15.1558 6.98021 15.1558 7.34936 15.1962 7.64965C15.2406 7.98032 15.3452 8.32984 15.6327 8.6173C15.9202 8.90476 16.2697 9.00936 16.6004 9.05382C16.9006 9.09419 17.2698 9.09415 17.6724 9.0941L20.7542 9.0941C20.8477 9.55625 20.8546 10.186 20.8546 11.3616V13.8605C20.8546 15.6343 20.8531 16.8944 20.7246 17.8504C20.5988 18.7863 20.3628 19.3255 19.9691 19.7192C19.5754 20.1128 19.0362 20.3488 18.1003 20.4746C17.1444 20.6032 15.8842 20.6047 14.1104 20.6047H10.3895C8.61573 20.6047 7.35558 20.6032 6.39962 20.4746C5.46372 20.3488 4.92452 20.1128 4.53083 19.7192C4.13715 19.3255 3.90118 18.7863 3.77535 17.8504C3.64683 16.8944 3.64535 15.6343 3.64535 13.8605V10.1396C3.64535 8.36579 3.64683 7.10563 3.77535 6.14967C3.90118 5.21378 4.13715 4.67457 4.53083 4.28089C4.92452 3.88721 5.46372 3.65123 6.39962 3.52541C7.35558 3.39688 8.61573 3.3954 10.3895 3.3954H12.8884Z" fill="#13161E"/>
<path d="M6.75181 7.34886C6.75181 6.96354 7.06417 6.65118 7.44949 6.65118H12.0407C12.426 6.65118 12.7384 6.96354 12.7384 7.34886C12.7384 7.73417 12.426 8.04653 12.0407 8.04653H7.44949C7.06417 8.04653 6.75181 7.73417 6.75181 7.34886Z" fill="#13161E"/>
<path d="M6.75181 12C6.75181 11.6147 7.06417 11.3023 7.44949 11.3023H17.0974C17.4827 11.3023 17.795 11.6147 17.795 12C17.795 12.3853 17.4827 12.6977 17.0974 12.6977H7.44949C7.06417 12.6977 6.75181 12.3853 6.75181 12Z" fill="#13161E"/>
<path d="M6.75181 16.6512C6.75181 16.2659 7.06417 15.9535 7.44949 15.9535H17.0974C17.4827 15.9535 17.795 16.2659 17.795 16.6512C17.795 17.0365 17.4827 17.3489 17.0974 17.3489H7.44949C7.06417 17.3489 6.75181 17.0365 6.75181 16.6512Z" fill="#13161E"/>
</svg>
