<svg width="24" height="24" viewBox="0 0 24 24" fill="none" xmlns="http://www.w3.org/2000/svg">
<path fill-rule="evenodd" clip-rule="evenodd" d="M12 2C6.47715 2 2 6.47715 2 12C2 17.5228 6.47715 22 12 22C17.5228 22 22 17.5228 22 12C22 6.47715 17.5228 2 12 2ZM3.39535 12C3.39535 7.24776 7.24778 3.39532 12 3.39532C16.7522 3.39532 20.6047 7.24776 20.6047 12C20.6047 16.7522 16.7522 20.6046 12 20.6046C7.24778 20.6046 3.39535 16.7522 3.39535 12Z" fill="white"/>
<path fill-rule="evenodd" clip-rule="evenodd" d="M16.4983 8.43944C16.8079 8.71463 16.8357 9.18869 16.5606 9.49827L11.2272 15.4983C11.0849 15.6584 10.8809 15.75 10.6667 15.75C10.4524 15.75 10.2484 15.6584 10.1061 15.4983L7.43944 12.4983C7.16425 12.1887 7.19214 11.7146 7.50173 11.4394C7.81131 11.1643 8.28537 11.1921 8.56056 11.5017L10.6667 13.8711L15.4394 8.50173C15.7146 8.19214 16.1887 8.16426 16.4983 8.43944Z" fill="white"/>
</svg>
