<svg width="24" height="24" viewBox="0 0 24 24" fill="none" xmlns="http://www.w3.org/2000/svg">
<path fill-rule="evenodd" clip-rule="evenodd" d="M20.2983 13.2395C20.6079 13.5147 20.6358 13.9887 20.3606 14.2983L16.0272 19.2983C15.8849 19.4584 15.6809 19.55 15.4667 19.55C15.2524 19.55 15.0484 19.4584 14.9061 19.2983L12.2395 16.2983C11.9643 15.9887 11.9921 15.5147 12.3017 15.2395C12.6113 14.9643 13.0854 14.9922 13.3606 15.3017L15.4667 17.6711L19.2395 13.3017C19.5146 12.9922 19.9887 12.9643 20.2983 13.2395Z" fill="#13161E"/>
<path fill-rule="evenodd" clip-rule="evenodd" d="M8.6 16.3C8.6 12.0474 12.0474 8.59998 16.3 8.59998C20.5526 8.59998 24 12.0474 24 16.3C24 20.5526 20.5526 24 16.3 24C12.0474 24 8.6 20.5526 8.6 16.3ZM16.3 9.99998C12.8206 9.99998 10 12.8206 10 16.3C10 19.7794 12.8206 22.6 16.3 22.6C19.7794 22.6 22.6 19.7794 22.6 16.3C22.6 12.8206 19.7794 9.99998 16.3 9.99998Z" fill="#13161E"/>
<path d="M0 7.7C0 3.44741 3.44741 0 7.7 0C10.9613 0 13.749 2.02749 14.8715 4.89076C15.0041 5.2291 14.8185 5.59999 14.4789 5.72931C14.0972 5.87464 13.676 5.65866 13.5191 5.28156C12.5708 3.00242 10.3225 1.4 7.7 1.4C4.22061 1.4 1.4 4.22061 1.4 7.7C1.4 10.3225 3.00242 12.5708 5.28156 13.5191C5.65866 13.676 5.87464 14.0972 5.72931 14.4789C5.59999 14.8185 5.2291 15.0041 4.89076 14.8715C2.02749 13.749 0 10.9613 0 7.7Z" fill="#13161E"/>
<path fill-rule="evenodd" clip-rule="evenodd" d="M5.16967 5.16967C5.46256 4.87678 5.93744 4.87678 6.23033 5.16967L7.7 6.63934L9.16967 5.16967C9.46256 4.87678 9.93744 4.87678 10.2303 5.16967C10.5232 5.46256 10.5232 5.93744 10.2303 6.23033L8.76066 7.7L9.86316 8.8025C10.1561 9.0954 10.1561 9.57027 9.86316 9.86316C9.57027 10.1561 9.0954 10.1561 8.8025 9.86316L7.7 8.76066L6.23033 10.2303C5.93744 10.5232 5.46256 10.5232 5.16967 10.2303C4.87678 9.93744 4.87678 9.46256 5.16967 9.16967L6.63934 7.7L5.16967 6.23033C4.87678 5.93744 4.87678 5.46256 5.16967 5.16967Z" fill="#13161E"/>
</svg>
