<svg width="24" height="24" viewBox="0 0 24 24" fill="none" xmlns="http://www.w3.org/2000/svg">
<path fill-rule="evenodd" clip-rule="evenodd" d="M2 12C2 6.47715 6.47715 2 12 2C17.5228 2 22 6.47715 22 12C22 17.5228 17.5228 22 12 22C6.47715 22 2 17.5228 2 12ZM16.5605 9.49828C16.8357 9.18869 16.8079 8.71464 16.4983 8.43945C16.1887 8.16426 15.7146 8.19215 15.4394 8.50174L10.6667 13.8711L8.56055 11.5017C8.28536 11.1921 7.81131 11.1643 7.50172 11.4395C7.19213 11.7146 7.16425 12.1887 7.43944 12.4983L10.1061 15.4983C10.2484 15.6584 10.4524 15.75 10.6667 15.75C10.8809 15.75 11.0849 15.6584 11.2272 15.4983L16.5605 9.49828Z" fill="white"/>
</svg>
