<svg width="34" height="30" viewBox="0 0 34 30" fill="none" xmlns="http://www.w3.org/2000/svg">
<path d="M29.5657 23.7168C29.5657 24.3273 30.0599 24.8222 30.6681 24.8222C30.8423 24.8222 30.9756 24.7999 31.084 24.7808C31.299 24.7428 31.5895 24.6678 31.9039 24.517C32.5608 24.2019 33.2662 23.5786 33.601 22.4547C33.8806 21.5162 34 20.2092 34 18.9796C34 17.75 33.8806 16.443 33.601 15.5045C33.2662 14.3806 32.5608 13.7572 31.9039 13.4422C31.5895 13.2914 31.299 13.2164 31.084 13.1784C30.9756 13.1592 30.8423 13.137 30.6681 13.137C30.0599 13.137 29.5657 13.6319 29.5657 14.2424V23.7168Z" fill="url(#paint0_linear_37_7240)"/>
<path d="M4.43435 23.7168C4.43435 24.3273 3.94006 24.8222 3.33185 24.8222C3.15767 24.8222 3.02444 24.7999 2.91597 24.7808C2.701 24.7428 2.41054 24.6678 2.09614 24.517C1.43924 24.2019 0.733757 23.5786 0.398977 22.4547C0.119418 21.5162 0 20.2092 0 18.9796C0 17.75 0.119418 16.443 0.398977 15.5045C0.733757 14.3806 1.43924 13.7572 2.09614 13.4422C2.41054 13.2914 2.701 13.2164 2.91597 13.1784C3.02444 13.1592 3.15767 13.137 3.33185 13.137C3.94006 13.137 4.43435 13.6319 4.43435 14.2424V23.7168Z" fill="url(#paint1_linear_37_7240)"/>
<path fill-rule="evenodd" clip-rule="evenodd" d="M10.4845 5.75716C9.18784 7.96934 8.67103 11.0233 8.67103 14.2424V23.7168C8.67103 24.3273 8.17852 24.8222 7.57099 24.8222C6.96346 24.8222 6.47096 24.3273 6.47096 23.7168V14.2424C6.47096 10.8543 7.00353 7.33982 8.58879 4.63525C10.222 1.84885 12.9346 0 16.9998 0C21.0651 0 23.7777 1.84884 25.4109 4.63524C26.9961 7.33981 27.5287 10.8543 27.5287 14.2424V23.7168C27.5287 25.5459 26.9775 26.9097 25.8392 27.7856C24.7771 28.603 23.3873 28.8415 22.0713 28.9221C21.4649 28.9592 20.9434 28.4953 20.9064 27.886C20.8695 27.2767 21.3311 26.7526 21.9375 26.7155C23.1651 26.6403 23.9875 26.4261 24.5016 26.0305C24.9395 25.6935 25.3286 25.0841 25.3286 23.7168V14.2424C25.3286 11.0233 24.8118 7.96933 23.5152 5.75715C22.2665 3.62681 20.2647 2.2107 16.9998 2.2107C13.735 2.2107 11.7332 3.62681 10.4845 5.75716Z" fill="url(#paint2_linear_37_7240)"/>
<path d="M19.0313 27.8559C19.0313 29.0401 18.076 30 16.8975 30C15.7191 30 14.7638 29.0401 14.7638 27.8559C14.7638 26.6718 15.7191 25.7118 16.8975 25.7118C18.076 25.7118 19.0313 26.6718 19.0313 27.8559Z" fill="url(#paint3_linear_37_7240)"/>
<defs>
<linearGradient id="paint0_linear_37_7240" x1="34.5667" y1="23.0769" x2="28.821" y2="18.5621" gradientUnits="userSpaceOnUse">
<stop stop-color="#9FC5FF"/>
<stop offset="1" stop-color="white"/>
</linearGradient>
<linearGradient id="paint1_linear_37_7240" x1="-2.3863e-07" y1="24.2308" x2="5.18058" y2="19.7077" gradientUnits="userSpaceOnUse">
<stop stop-color="#9FD1FF"/>
<stop offset="1" stop-color="white"/>
</linearGradient>
<linearGradient id="paint2_linear_37_7240" x1="17" y1="28.2692" x2="17" y2="16.1538" gradientUnits="userSpaceOnUse">
<stop stop-color="#9FD1FF"/>
<stop offset="1" stop-color="white"/>
</linearGradient>
<linearGradient id="paint3_linear_37_7240" x1="15.5" y1="30" x2="17.0619" y2="26.5278" gradientUnits="userSpaceOnUse">
<stop stop-color="#9FD1FF"/>
<stop offset="1" stop-color="white"/>
</linearGradient>
</defs>
</svg>
