<svg width="24" height="24" viewBox="0 0 24 24" fill="none" xmlns="http://www.w3.org/2000/svg">
<path fill-rule="evenodd" clip-rule="evenodd" d="M2 9.71429C2 6.55834 4.60297 4 7.81395 4C9.45841 4 10.9432 4.67144 12 5.74877C13.0568 4.67144 14.5416 4 16.186 4C19.397 4 22 6.55834 22 9.71429C22 13.2817 19.5642 15.8605 17.231 17.4981C16.0518 18.3257 14.8615 18.9407 13.9356 19.3494C13.4721 19.5541 13.0701 19.7091 12.7633 19.8144C12.6105 19.8669 12.4764 19.9088 12.3669 19.9385C12.2924 19.9587 12.1394 20 12 20C11.8606 20 11.7076 19.9587 11.6331 19.9385C11.5236 19.9088 11.3895 19.8669 11.2367 19.8144C10.9299 19.7091 10.5279 19.5541 10.0644 19.3494C9.13851 18.9407 7.94817 18.3257 6.76897 17.4981C4.43582 15.8605 2 13.2817 2 9.71429ZM7.81395 5.37143C5.3736 5.37143 3.39535 7.31576 3.39535 9.71429C3.39535 12.6155 5.37814 14.8367 7.57986 16.382C8.66811 17.1458 9.77428 17.7179 10.6362 18.0984C11.0666 18.2885 11.4313 18.4286 11.6969 18.5198C11.8273 18.5645 11.9291 18.5959 12 18.6153C12.0709 18.5959 12.1727 18.5645 12.3031 18.5198C12.5687 18.4286 12.9334 18.2885 13.3638 18.0984C14.2257 17.7179 15.3319 17.1458 16.4201 16.382C18.6219 14.8367 20.6047 12.6155 20.6047 9.71429C20.6047 7.31576 18.6264 5.37143 16.186 5.37143C14.6921 5.37143 13.3713 6.09939 12.5704 7.21713C12.2237 7.7011 12.0547 7.68878 12 7.68878C11.9453 7.68878 11.7763 7.7011 11.4296 7.21713C10.6287 6.09939 9.30786 5.37143 7.81395 5.37143Z" fill="white"/>
</svg>
