<svg width="24" height="24" viewBox="0 0 24 24" fill="none" xmlns="http://www.w3.org/2000/svg">
<path d="M10.0885 22C8.81632 22 7.7909 22 6.98442 21.8916C6.14711 21.779 5.44211 21.5382 4.88219 20.9783C4.32226 20.4184 4.08143 19.7134 3.96886 18.876C3.87944 18.211 3.86377 17.397 3.86104 16.4186H2.69767C2.31236 16.4186 2 16.1062 2 15.7209C2 15.3356 2.31236 15.0233 2.69767 15.0233H3.86047V12.6977H2.69767C2.31236 12.6977 2 12.3853 2 12C2 11.6147 2.31236 11.3023 2.69767 11.3023H3.86047V8.97675H2.69767C2.31236 8.97675 2 8.66439 2 8.27907C2 7.89376 2.31236 7.5814 2.69767 7.5814H3.86104C3.86377 6.60296 3.87944 5.78902 3.96886 5.12395C4.08143 4.28664 4.32226 3.58164 4.88219 3.02172C5.44211 2.4618 6.14711 2.22097 6.98442 2.10839C7.7909 1.99997 8.81632 1.99998 10.0885 2L15.9861 2C17.2583 1.99998 18.2837 1.99997 19.0902 2.1084C19.9275 2.22097 20.6325 2.4618 21.1924 3.02172C21.5845 3.41387 21.8202 3.87717 21.9648 4.40724C22.0711 4.79666 21.7814 5.16756 21.3813 5.22134C21.0176 5.27024 20.6974 5.01001 20.5851 4.66067C20.491 4.3684 20.3657 4.16832 20.2057 4.00838C19.9483 3.75093 19.5868 3.58307 18.9042 3.4913C18.2016 3.39683 17.2703 3.39535 15.935 3.39535L10.1395 3.39535C8.80426 3.39535 7.873 3.39683 7.17034 3.4913C6.48776 3.58307 6.1263 3.75093 5.86885 4.00838C5.61139 4.26584 5.44354 4.6273 5.35176 5.30988C5.2573 6.01253 5.25581 6.9438 5.25581 8.27907V15.7209C5.25581 17.0562 5.2573 17.9875 5.35176 18.6901C5.44354 19.3727 5.61139 19.7342 5.86885 19.9916C6.1263 20.2491 6.48776 20.4169 7.17034 20.5087C7.873 20.6032 8.80426 20.6046 10.1395 20.6046H16.0175C16.3929 20.6046 16.701 20.9017 16.7147 21.2768C16.7292 21.6719 16.4128 22 16.0175 22H10.0885Z" fill="#13161E"/>
<path d="M7.5814 7.34884C7.5814 6.96352 7.89375 6.65116 8.27907 6.65116H16.7907C17.176 6.65116 17.4884 6.96352 17.4884 7.34884C17.4884 7.73415 17.176 8.04651 16.7907 8.04651H8.27907C7.89375 8.04651 7.5814 7.73415 7.5814 7.34884Z" fill="#13161E"/>
<path d="M7.5814 12C7.5814 11.6147 7.89375 11.3023 8.27907 11.3023H15.3198C15.7052 11.3023 16.0175 11.6147 16.0175 12C16.0175 12.3853 15.7052 12.6977 15.3198 12.6977H8.27907C7.89375 12.6977 7.5814 12.3853 7.5814 12Z" fill="#13161E"/>
<path d="M7.5814 16.6512C7.5814 16.2658 7.89375 15.9535 8.27907 15.9535H13.3172C13.7025 15.9535 14.0149 16.2658 14.0149 16.6512C14.0149 17.0365 13.7025 17.3488 13.3172 17.3488H8.27907C7.89375 17.3488 7.5814 17.0365 7.5814 16.6512Z" fill="#13161E"/>
<path d="M20.7189 11.7605L19.0907 16.2819C18.9113 16.7801 18.8216 17.0292 18.6725 17.2444C18.5234 17.4595 18.3217 17.631 17.9183 17.974L17.5051 18.3253C17.269 18.526 17.151 18.6264 17.042 18.5871C16.9329 18.5479 16.906 18.3953 16.8521 18.0902L16.7577 17.5561C16.6656 17.0346 16.6195 16.7739 16.6419 16.5131C16.6642 16.2523 16.7539 16.0032 16.9333 15.505L18.5616 10.9836C18.7761 10.3879 19.433 10.0789 20.0287 10.2934C20.6244 10.5079 20.9335 11.1648 20.7189 11.7605Z" fill="#13161E"/>
<path d="M19.7617 7.65118C19.5473 8.24634 19.8571 8.90293 20.4523 9.11726C21.0474 9.33159 21.7047 9.02324 21.919 8.42808C22.1334 7.83292 21.8236 7.17632 21.2284 6.96199C20.6333 6.74765 19.976 7.05601 19.7617 7.65118Z" fill="#13161E"/>
</svg>
