<svg width="24" height="24" viewBox="0 0 24 24" fill="none" xmlns="http://www.w3.org/2000/svg">
<path fill-rule="evenodd" clip-rule="evenodd" d="M10.0885 2H12.9813C14.2535 1.99998 15.2789 1.99997 16.0854 2.10839C16.9227 2.22097 17.6277 2.4618 18.1876 3.02172C18.7475 3.58164 18.9883 4.28664 19.1009 5.12395C19.2093 5.93044 19.2093 6.95585 19.2093 8.22803V15.772C19.2093 17.0441 19.2093 18.0696 19.1009 18.876C18.9883 19.7134 18.7475 20.4184 18.1876 20.9783C17.6277 21.5382 16.9227 21.779 16.0854 21.8916C15.2789 22 14.2535 22 12.9813 22H10.0885C8.81632 22 7.7909 22 6.98442 21.8916C6.14711 21.779 5.44211 21.5382 4.88219 20.9783C4.32226 20.4184 4.08143 19.7134 3.96886 18.876C3.87944 18.211 3.86377 17.397 3.86104 16.4186H2.69767C2.31236 16.4186 2 16.1062 2 15.7209C2 15.3356 2.31236 15.0233 2.69767 15.0233H3.86047V12.6977H2.69767C2.31236 12.6977 2 12.3853 2 12C2 11.6147 2.31236 11.3023 2.69767 11.3023H3.86047V8.97674H2.69767C2.31236 8.97674 2 8.66438 2 8.27907C2 7.89375 2.31236 7.5814 2.69767 7.5814H3.86104C3.86377 6.60296 3.87944 5.78902 3.96886 5.12395C4.08143 4.28664 4.32226 3.58164 4.88219 3.02172C5.44211 2.4618 6.14711 2.22097 6.98442 2.10839C7.7909 1.99997 8.81631 1.99998 10.0885 2ZM7.17034 3.4913C6.48776 3.58307 6.1263 3.75093 5.86885 4.00838C5.61139 4.26584 5.44354 4.6273 5.35176 5.30988C5.2573 6.01253 5.25581 6.9438 5.25581 8.27907V15.7209C5.25581 17.0562 5.2573 17.9875 5.35176 18.6901C5.44354 19.3727 5.61139 19.7342 5.86885 19.9916C6.1263 20.2491 6.48776 20.4169 7.17034 20.5087C7.873 20.6032 8.80426 20.6047 10.1395 20.6047H12.9302C14.2655 20.6047 15.1968 20.6032 15.8994 20.5087C16.582 20.4169 16.9435 20.2491 17.2009 19.9916C17.4584 19.7342 17.6262 19.3727 17.718 18.6901C17.8125 17.9875 17.814 17.0562 17.814 15.7209V8.27907C17.814 6.9438 17.8125 6.01253 17.718 5.30988C17.6262 4.6273 17.4584 4.26584 17.2009 4.00838C16.9435 3.75093 16.582 3.58307 15.8994 3.4913C15.1968 3.39683 14.2655 3.39535 12.9302 3.39535H10.1395C8.80426 3.39535 7.873 3.39683 7.17034 3.4913ZM21.3023 5.72093C21.6876 5.72093 22 6.03329 22 6.41861V7.81395C22 8.19927 21.6876 8.51163 21.3023 8.51163C20.917 8.51163 20.6047 8.19927 20.6047 7.81395V6.41861C20.6047 6.03329 20.917 5.72093 21.3023 5.72093ZM7.5814 7.34884C7.5814 6.96352 7.89375 6.65116 8.27907 6.65116H14.7907C15.176 6.65116 15.4884 6.96352 15.4884 7.34884C15.4884 7.73415 15.176 8.04651 14.7907 8.04651H8.27907C7.89375 8.04651 7.5814 7.73415 7.5814 7.34884ZM21.3023 10.3721C21.6876 10.3721 22 10.6845 22 11.0698V17.5814C22 17.9667 21.6876 18.2791 21.3023 18.2791C20.917 18.2791 20.6047 17.9667 20.6047 17.5814V11.0698C20.6047 10.6845 20.917 10.3721 21.3023 10.3721ZM7.5814 12C7.5814 11.6147 7.89375 11.3023 8.27907 11.3023H14.7907C15.176 11.3023 15.4884 11.6147 15.4884 12C15.4884 12.3853 15.176 12.6977 14.7907 12.6977H8.27907C7.89375 12.6977 7.5814 12.3853 7.5814 12ZM7.5814 16.6512C7.5814 16.2658 7.89375 15.9535 8.27907 15.9535H12C12.3853 15.9535 12.6977 16.2658 12.6977 16.6512C12.6977 17.0365 12.3853 17.3488 12 17.3488H8.27907C7.89375 17.3488 7.5814 17.0365 7.5814 16.6512Z" fill="#13161E"/>
</svg>
