<svg width="23" height="15" viewBox="0 0 23 15" fill="none" xmlns="http://www.w3.org/2000/svg">
<path d="M23 7.5C23 11.6421 19.6421 15 15.5 15C11.3579 15 8 11.6421 8 7.5C8 3.35786 11.3579 0 15.5 0C19.6421 0 23 3.35786 23 7.5Z" fill="#FF9901"/>
<path d="M7.5 15C3.35786 15 0 11.6421 0 7.5C0 3.35786 3.35786 0 7.5 0C8.97058 0 10.3423 0.423243 11.5 1.15456C11.1076 1.40247 10.7397 1.68578 10.4009 2H12.5991C12.9284 2.30549 13.2303 2.64019 13.5005 3H9.49945C9.26283 3.31502 9.05044 3.64927 8.86505 4H14.135C14.3043 4.3203 14.4511 4.65433 14.5732 5H8.42676C8.31235 5.32371 8.21953 5.65762 8.15003 6H14.85C14.9162 6.32615 14.9612 6.65998 14.9836 7H8.0164C8.00552 7.16526 8 7.33199 8 7.5C8 7.66801 8.00552 7.83474 8.0164 8H14.9836C14.9612 8.34002 14.9162 8.67385 14.85 9H8.15003C8.21953 9.34238 8.31235 9.67629 8.42676 10H14.5732C14.4511 10.3457 14.3043 10.6797 14.135 11H8.86505C9.05044 11.3507 9.26283 11.685 9.49945 12H13.5005C13.2303 12.3598 12.9284 12.6945 12.5991 13H10.4009C10.7397 13.3142 11.1076 13.5975 11.5 13.8454C10.3423 14.5768 8.97058 15 7.5 15Z" fill="#E31E25"/>
</svg>
