<svg width="24" height="24" viewBox="0 0 24 24" fill="none" xmlns="http://www.w3.org/2000/svg">
<path d="M5.37393 4.79102C5.00798 4.79102 4.71132 5.10338 4.71132 5.48869C4.71132 5.874 5.00798 6.18636 5.37393 6.18636H15.5339C15.8999 6.18636 16.1965 5.874 16.1965 5.48869C16.1965 5.10338 15.8999 4.79102 15.5339 4.79102H5.37393Z" fill="#13161E"/>
<path d="M5.16259 7.58171C4.79664 7.58171 4.49998 7.89407 4.49998 8.27939C4.49998 8.6647 4.79664 8.97706 5.16259 8.97706H15.5339C15.8999 8.97706 16.1965 8.6647 16.1965 8.27939C16.1965 7.89407 15.8999 7.58171 15.5339 7.58171H5.16259Z" fill="#13161E"/>
<path d="M5.16259 10.3724C4.79664 10.3724 4.49998 10.6848 4.49998 11.0701C4.49998 11.4554 4.79664 11.7678 5.16259 11.7678H8.23306C8.59901 11.7678 8.89567 11.4554 8.89567 11.0701C8.89567 10.6848 8.59901 10.3724 8.23306 10.3724H5.16259Z" fill="#13161E"/>
<path d="M5.21285 13.1631C4.84691 13.1631 4.55025 13.4755 4.55025 13.8608C4.55025 14.2461 4.84691 14.5585 5.21285 14.5585H8.23306C8.59901 14.5585 8.89567 14.2461 8.89567 13.8608C8.89567 13.4755 8.59901 13.1631 8.23306 13.1631H5.21285Z" fill="#13161E"/>
<path d="M5.47527 15.9538C5.10932 15.9538 4.81266 16.2662 4.81266 16.6515C4.81266 17.0368 5.10932 17.3492 5.47527 17.3492H8.23306C8.59901 17.3492 8.89567 17.0368 8.89567 16.6515C8.89567 16.2662 8.59901 15.9538 8.23306 15.9538H5.47527Z" fill="#13161E"/>
<path d="M10.3399 12.5474C10.3497 11.7074 10.3545 11.2874 10.6295 11.0156C10.9045 10.7438 11.7151 10.7438 12.9072 10.7438C14.0997 10.7438 14.993 10.7439 15.2689 11.0209C15.5448 11.298 15.5428 11.7609 15.5389 12.6866C15.5359 13.394 15.5421 14.2105 15.5706 14.9858C15.6126 16.1303 15.6336 16.7026 15.356 16.9906C15.0784 17.2786 13.9139 17.2786 12.7846 17.2786C11.6552 17.2786 11.0154 17.2786 10.7442 17.0252C10.4729 16.7718 10.4506 16.4448 10.406 15.7908C10.3354 14.7559 10.3285 13.5312 10.3399 12.5474Z" fill="#13161E"/>
<path fill-rule="evenodd" clip-rule="evenodd" d="M3.7901 2.03684C4.05584 1.99991 4.37881 1.99996 4.72673 2L16.2732 2C16.6933 1.99996 17.0735 1.99992 17.3792 2.04365C17.7117 2.09122 18.0676 2.20377 18.3475 2.52203C18.6284 2.84159 18.7066 3.22678 18.7256 3.5804C18.7432 3.90689 18.7136 4.30975 18.6808 4.75624L18.6776 4.79958C18.6567 5.08402 18.635 5.39241 18.613 5.72094H20.6358C21.0831 5.72094 21.4598 6.07286 21.513 6.54043L21.5633 6.98229C21.606 7.39326 21.6634 7.97949 21.7226 8.68266C21.8407 10.0874 21.9663 11.9661 21.9943 13.8496C22.022 15.7221 21.9544 17.644 21.6705 19.1156C21.5296 19.8459 21.3247 20.5255 21.0122 21.0391C20.6911 21.567 20.1988 22 19.5096 22H4.49045C3.87306 22 3.43002 21.6068 3.13956 21.1513C2.8544 20.7041 2.65403 20.1107 2.50543 19.4641C2.20593 18.1607 2.06781 16.4136 2.02017 14.5709C1.9245 10.8711 2.19083 6.60817 2.36524 4.3166L2.36824 4.27714C2.39557 3.91746 2.42106 3.58202 2.47722 3.30825C2.54 3.00221 2.65622 2.68811 2.92003 2.43172C3.18516 2.17403 3.4945 2.07792 3.7901 2.03684ZM17.8774 20.6047H4.49045L4.48939 20.6047C4.47356 20.6048 4.38796 20.6059 4.2398 20.3735C4.08263 20.127 3.92752 19.7192 3.79348 19.1359C3.5277 17.9793 3.39191 16.3512 3.34489 14.533C3.25124 10.9109 3.51263 6.70883 3.68622 4.42806C3.71765 4.01514 3.73735 3.77451 3.77256 3.60284C3.78849 3.52521 3.80304 3.48712 3.81096 3.47027C3.81629 3.45894 3.8188 3.4571 3.8188 3.4571L3.82014 3.45595C3.82014 3.45595 3.82358 3.45371 3.83138 3.45046C3.84866 3.44326 3.887 3.43082 3.9635 3.42019C4.13202 3.39677 4.36583 3.39536 4.76428 3.39536H16.2319C16.7068 3.39536 16.9952 3.39688 17.2007 3.42629C17.2959 3.4399 17.3436 3.45607 17.3652 3.46572C17.3693 3.46753 17.3721 3.46901 17.3741 3.47008C17.3815 3.48841 17.3961 3.54023 17.4025 3.65937C17.4144 3.88074 17.3933 4.18822 17.3563 4.69209C17.32 5.18733 17.281 5.75438 17.2429 6.37353C17.1585 7.74708 17.0782 9.37915 17.0409 11.0534C16.998 12.9819 17.0117 14.9794 17.1439 16.7072C17.2474 18.0585 17.4266 19.2928 17.7296 20.2076C17.7745 20.3432 17.8235 20.4762 17.8774 20.6047ZM17.3696 3.4617C17.3696 3.4617 17.371 3.46305 17.3731 3.46763C17.3705 3.4643 17.3696 3.4617 17.3696 3.4617Z" fill="#13161E"/>
</svg>
