<svg width="185.000000" height="47.000000" viewBox="0 0 185 47" fill="none" xmlns="http://www.w3.org/2000/svg" xmlns:xlink="http://www.w3.org/1999/xlink">
	<desc>
			Created with Pixso.
	</desc>
	<defs/>
	<path id="Subtract" d="M0.0671692 25.7091C-0.726807 13.235 5.56143 3.71021 16.6203 0.63475C20.8954 -0.553635 28.4209 -0.0179443 32.6826 1.77908C37.1897 3.67932 42.2903 9.10066 43.9353 13.7379C45.5951 18.4184 45.6045 27.7809 43.9535 32.4312C41.4246 39.5576 36.1255 44.3144 28.6147 46.2002C20.1484 48.3259 11.7015 46.1502 6.25079 40.4384C2.06021 36.0477 0.486969 32.2991 0.0671692 25.7091ZM150.829 13.0273C147.532 7.58232 144.504 2.52184 144.1 1.78172C143.383 0.469757 143.524 0.435577 149.662 0.435577L155.959 0.435577L158.846 6.51553C160.433 9.85983 162.326 13.9061 163.051 15.5079L164.37 18.4197L165.553 15.5079C166.204 13.9061 168.203 9.93346 169.995 6.67986L173.254 0.764236L185 0.384308L170.829 23.2646L177.909 34.5221C181.803 40.7138 184.989 45.9406 184.989 46.1371C184.989 46.3343 182.244 46.4105 178.889 46.3067L172.789 46.1174L163.779 28.7971L154.487 46.446L148.239 46.446C143.441 46.446 142.111 46.2574 142.505 45.6316C142.788 45.1834 146.125 40.1176 149.921 34.3742C153.718 28.6301 156.824 23.705 156.824 23.429C156.824 23.1529 154.126 18.4723 150.829 13.0273ZM63.7912 46.446L53.5511 46.446L53.5511 0.435577L64.6664 0.435577L85.4048 31.8522L85.7642 0.435577L95.7991 0.435577L95.7991 46.446L85.219 46.446L74.6282 30.5067C68.8033 21.7397 63.7651 14.2716 63.4311 13.9101C63.0696 13.5183 63.02 19.9506 63.3084 29.8494L63.7912 46.446ZM115.917 29.5648L101.209 0.435577L113.024 0.435577L117.153 9.93346C119.424 15.157 121.282 19.9388 121.282 20.5599C121.282 22.2511 122.036 21.1863 123.315 17.6915C123.943 15.9733 125.888 11.3874 127.636 7.50148L130.814 0.435577L136.107 0.435577C139.018 0.435577 141.4 0.62619 141.4 0.859528C141.4 1.09222 138.081 7.56984 134.023 15.2536L126.647 29.225L126.647 46.446L115.917 46.446L115.917 29.5648ZM22.6401 8.06444C14.6048 8.06444 10.53 14.4205 10.53 23.5C10.53 32.5795 14.6048 38.9356 22.6401 38.9356C30.6754 38.9356 34.7502 32.5795 34.7502 23.5C34.7502 14.4205 30.6754 8.06444 22.6401 8.06444Z" fill="#4744CB" fill-opacity="1.000000" fill-rule="evenodd"/>
</svg>
