<svg width="24" height="24" viewBox="0 0 24 24" fill="none" xmlns="http://www.w3.org/2000/svg">
<path d="M10.3732 10.3679C9.59216 11.1489 8.32583 11.1489 7.54479 10.3679C6.76374 9.58684 6.76374 8.32051 7.54479 7.53946C8.32583 6.75841 9.59216 6.75841 10.3732 7.53946C11.1543 8.32051 11.1543 9.58684 10.3732 10.3679Z" fill="#1F2533"/>
<path d="M15.7376 8.26237C16.011 8.53574 16.011 8.97896 15.7376 9.25232L9.25234 15.7376C8.97897 16.011 8.53576 16.011 8.26239 15.7376C7.98902 15.4642 7.98902 15.021 8.26239 14.7477L14.7477 8.26237C15.021 7.98901 15.4643 7.98901 15.7376 8.26237Z" fill="#1F2533"/>
<path d="M16.4579 16.4579C15.6774 17.2384 14.4119 17.2384 13.6313 16.4579C12.8508 15.6773 12.8508 14.4118 13.6313 13.6313C14.4119 12.8508 15.6774 12.8508 16.4579 13.6313C17.2385 14.4118 17.2385 15.6773 16.4579 16.4579Z" fill="#1F2533"/>
<path fill-rule="evenodd" clip-rule="evenodd" d="M2 12C2 6.47715 6.47715 2 12 2C17.5228 2 22 6.47715 22 12C22 17.5228 17.5228 22 12 22C6.47715 22 2 17.5228 2 12ZM12 3.39532C7.24778 3.39532 3.39535 7.24776 3.39535 12C3.39535 16.7522 7.24778 20.6046 12 20.6046C16.7522 20.6046 20.6047 16.7522 20.6047 12C20.6047 7.24776 16.7522 3.39532 12 3.39532Z" fill="#1F2533"/>
</svg>
