<svg width="30" height="30" viewBox="0 0 30 30" fill="none" xmlns="http://www.w3.org/2000/svg">
<path fill-rule="evenodd" clip-rule="evenodd" d="M3.27822 4.37938C2.99326 4.84635 2.47708 6.2115 2.23028 8.47758C1.98148 10.762 2.01652 13.8798 2.79582 17.73C3.50266 21.2223 6.46653 23.7744 9.50201 25.4995C10.9942 26.3476 12.444 26.9613 13.523 27.363C14.0612 27.5634 14.5041 27.7099 14.8098 27.8057C14.8808 27.8279 14.9444 27.8474 15 27.8641C15.0556 27.8474 15.1192 27.8279 15.1902 27.8057C15.4959 27.7099 15.9388 27.5634 16.477 27.363C17.556 26.9613 19.0058 26.3476 20.498 25.4995C23.5335 23.7744 26.4973 21.2223 27.2042 17.73C27.9835 13.8798 28.0185 10.762 27.7697 8.47758C27.5229 6.21148 27.0067 4.84633 26.7218 4.37937C26.7055 4.36732 26.6365 4.31129 26.4671 4.22254C26.2278 4.09707 25.887 3.95657 25.4487 3.80829C24.5759 3.51302 23.4208 3.22159 22.152 2.9639C19.6051 2.44663 16.7407 2.09307 15 2.09307C13.2593 2.09307 10.3949 2.44663 7.84803 2.9639C6.57922 3.22159 5.42407 3.51302 4.55127 3.80829C4.11299 3.95657 3.77222 4.09707 3.53286 4.22254C3.3635 4.31131 3.29445 4.36734 3.27822 4.37938ZM15 28.9535C14.7295 29.9645 14.7287 29.9643 14.7287 29.9643L14.725 29.9633L14.7162 29.9609L14.6863 29.9527C14.6609 29.9456 14.6248 29.9354 14.5785 29.922C14.4859 29.8953 14.3528 29.8558 14.1845 29.8031C13.8479 29.6977 13.3697 29.5393 12.7926 29.3245C11.6409 28.8956 10.0832 28.2373 8.46786 27.3192C5.28831 25.5123 1.63724 22.5565 0.744393 18.1452C-0.0759991 14.092 -0.123445 10.7576 0.14956 8.25096C0.418036 5.78589 1.007 4.03277 1.5449 3.20439C1.80252 2.80764 2.22737 2.54371 2.56117 2.36874C2.93478 2.17291 3.38848 1.99212 3.88053 1.82565C4.86842 1.49145 6.11746 1.17962 7.43144 0.912749C10.0502 0.380878 13.0657 4.57764e-05 15 4.57764e-05C16.9343 4.57764e-05 19.9498 0.380878 22.5686 0.912749C23.8825 1.17962 25.1316 1.49145 26.1195 1.82565C26.6115 1.99212 27.0652 2.17291 27.4388 2.36874C27.7726 2.54371 28.1975 2.80764 28.4551 3.20439C28.993 4.03277 29.582 5.78589 29.8504 8.25096C30.1234 10.7576 30.076 14.092 29.2556 18.1452C28.3628 22.5565 24.7117 25.5123 21.5321 27.3192C19.9168 28.2373 18.3591 28.8956 17.2074 29.3245C16.6303 29.5393 16.1521 29.6977 15.8155 29.8031C15.6472 29.8558 15.5141 29.8953 15.4215 29.922C15.3752 29.9354 15.3391 29.9456 15.3137 29.9527L15.2838 29.9609L15.275 29.9633L15.2723 29.964C15.2723 29.964 15.2705 29.9645 15 28.9535ZM15 28.9535L14.7287 29.9643C14.906 30.0117 15.0933 30.0119 15.2705 29.9645L15 28.9535Z" fill="white"/>
<path fill-rule="evenodd" clip-rule="evenodd" d="M3.27822 4.37938C2.99326 4.84635 2.47708 6.2115 2.23028 8.47758C1.98148 10.762 2.01652 13.8798 2.79582 17.73C3.50266 21.2223 6.46653 23.7744 9.50201 25.4995C10.9942 26.3476 12.444 26.9613 13.523 27.363C14.0612 27.5634 14.5041 27.7099 14.8098 27.8057C14.8808 27.8279 14.9444 27.8474 15 27.8641C15.0556 27.8474 15.1192 27.8279 15.1902 27.8057C15.4959 27.7099 15.9388 27.5634 16.477 27.363C17.556 26.9613 19.0058 26.3476 20.498 25.4995C23.5335 23.7744 26.4973 21.2223 27.2042 17.73C27.9835 13.8798 28.0185 10.762 27.7697 8.47758C27.5229 6.21148 27.0067 4.84633 26.7218 4.37937C26.7055 4.36732 26.6365 4.31129 26.4671 4.22254C26.2278 4.09707 25.887 3.95657 25.4487 3.80829C24.5759 3.51302 23.4208 3.22159 22.152 2.9639C19.6051 2.44663 16.7407 2.09307 15 2.09307C13.2593 2.09307 10.3949 2.44663 7.84803 2.9639C6.57922 3.22159 5.42407 3.51302 4.55127 3.80829C4.11299 3.95657 3.77222 4.09707 3.53286 4.22254C3.3635 4.31131 3.29445 4.36734 3.27822 4.37938ZM15 28.9535C14.7295 29.9645 14.7287 29.9643 14.7287 29.9643L14.725 29.9633L14.7162 29.9609L14.6863 29.9527C14.6609 29.9456 14.6248 29.9354 14.5785 29.922C14.4859 29.8953 14.3528 29.8558 14.1845 29.8031C13.8479 29.6977 13.3697 29.5393 12.7926 29.3245C11.6409 28.8956 10.0832 28.2373 8.46786 27.3192C5.28831 25.5123 1.63724 22.5565 0.744393 18.1452C-0.0759991 14.092 -0.123445 10.7576 0.14956 8.25096C0.418036 5.78589 1.007 4.03277 1.5449 3.20439C1.80252 2.80764 2.22737 2.54371 2.56117 2.36874C2.93478 2.17291 3.38848 1.99212 3.88053 1.82565C4.86842 1.49145 6.11746 1.17962 7.43144 0.912749C10.0502 0.380878 13.0657 4.57764e-05 15 4.57764e-05C16.9343 4.57764e-05 19.9498 0.380878 22.5686 0.912749C23.8825 1.17962 25.1316 1.49145 26.1195 1.82565C26.6115 1.99212 27.0652 2.17291 27.4388 2.36874C27.7726 2.54371 28.1975 2.80764 28.4551 3.20439C28.993 4.03277 29.582 5.78589 29.8504 8.25096C30.1234 10.7576 30.076 14.092 29.2556 18.1452C28.3628 22.5565 24.7117 25.5123 21.5321 27.3192C19.9168 28.2373 18.3591 28.8956 17.2074 29.3245C16.6303 29.5393 16.1521 29.6977 15.8155 29.8031C15.6472 29.8558 15.5141 29.8953 15.4215 29.922C15.3752 29.9354 15.3391 29.9456 15.3137 29.9527L15.2838 29.9609L15.275 29.9633L15.2723 29.964C15.2723 29.964 15.2705 29.9645 15 28.9535ZM15 28.9535L14.7287 29.9643C14.906 30.0117 15.0933 30.0119 15.2705 29.9645L15 28.9535Z" fill="url(#paint0_linear_37_7258)"/>
<path fill-rule="evenodd" clip-rule="evenodd" d="M21.7474 8.44897C22.2118 8.86176 22.2536 9.57284 21.8408 10.0372L13.8408 19.0372C13.6273 19.2774 13.3213 19.4148 13 19.4148C12.6787 19.4148 12.3727 19.2774 12.1592 19.0372L8.15917 14.5372C7.74638 14.0728 7.78821 13.3618 8.25259 12.949C8.71697 12.5362 9.42805 12.578 9.84084 13.0424L13 16.5965L20.1592 8.5424C20.5719 8.07802 21.283 8.03619 21.7474 8.44897Z" fill="url(#paint1_linear_37_7258)"/>
<defs>
<linearGradient id="paint0_linear_37_7258" x1="15.8713" y1="14.0009" x2="18.8978" y2="55.0488" gradientUnits="userSpaceOnUse">
<stop stop-color="white"/>
<stop offset="1" stop-color="#FF4701"/>
</linearGradient>
<linearGradient id="paint1_linear_37_7258" x1="13.3176" y1="12.2039" x2="19.1816" y2="32.5387" gradientUnits="userSpaceOnUse">
<stop stop-color="white"/>
<stop offset="1" stop-color="#FF4701"/>
</linearGradient>
</defs>
</svg>
