<svg width="24" height="24" viewBox="0 0 24 24" fill="none" xmlns="http://www.w3.org/2000/svg">
<path fill-rule="evenodd" clip-rule="evenodd" d="M15.5716 6.73764C13.1309 4.29686 9.17358 4.29686 6.7328 6.73764C4.29203 9.17842 4.29203 13.1357 6.7328 15.5765C9.17358 18.0173 13.1309 18.0173 15.5716 15.5765C18.0124 13.1357 18.0124 9.17842 15.5716 6.73764ZM5.67214 5.67698C8.69871 2.65042 13.6057 2.65042 16.6323 5.67698C19.2922 8.33691 19.6144 12.4493 17.599 15.4611L20.1561 18.0183C20.7447 18.6069 20.7452 19.5611 20.1571 20.1502C19.5683 20.7401 18.6126 20.7406 18.0232 20.1512L15.468 17.596C12.4551 19.6201 8.33551 19.3005 5.67214 16.6371C2.64558 13.6106 2.64558 8.70354 5.67214 5.67698Z" fill="#1F2533"/>
</svg>
