<svg width="24" height="24" viewBox="0 0 24 24" fill="none" xmlns="http://www.w3.org/2000/svg">
<path d="M13.25 8.5C14.4926 8.5 15.5 7.49264 15.5 6.25C15.5 5.00736 14.4926 4 13.25 4C12.2509 4 11.4039 4.6512 11.1103 5.55231H2.69767C2.31236 5.55231 2 5.86467 2 6.24998C2 6.6353 2.31236 6.94766 2.69767 6.94766H11.1103C11.4039 7.84878 12.2509 8.5 13.25 8.5Z" fill="#13161E"/>
<path d="M21.3023 5.55231C21.6876 5.55231 22 5.86467 22 6.24998C22 6.6353 21.6876 6.94766 21.3023 6.94766H17.6977C17.3124 6.94766 17 6.6353 17 6.24998C17 5.86467 17.3124 5.55231 17.6977 5.55231H21.3023Z" fill="#13161E"/>
<path d="M2.69767 11.0523C2.31236 11.0523 2 11.3647 2 11.75C2 12.1353 2.31236 12.4477 2.69767 12.4477H6.02796C6.32158 13.3488 7.1686 14 8.16771 14C9.41035 14 10.4177 12.9926 10.4177 11.75C10.4177 10.5074 9.41035 9.5 8.16771 9.5C7.16861 9.5 6.3216 10.1512 6.02798 11.0523H2.69767Z" fill="#13161E"/>
<path d="M21.3023 11.0523C21.6876 11.0523 22 11.3647 22 11.75C22 12.1353 21.6876 12.4477 21.3023 12.4477H12.6977C12.3124 12.4477 12 12.1353 12 11.75C12 11.3647 12.3124 11.0523 12.6977 11.0523H21.3023Z" fill="#13161E"/>
<path d="M2.69767 16.5523C2.31236 16.5523 2 16.8647 2 17.25C2 17.6353 2.31236 17.9477 2.69767 17.9477H12C12.5523 17.9477 13 17.5 13 16.9477V16.5523H2.69767Z" fill="#13161E"/>
<path d="M18.8897 17.9477C18.5961 18.8488 17.7491 19.5 16.75 19.5C15.5074 19.5 14.5 18.4926 14.5 17.25C14.5 16.0074 15.5074 15 16.75 15C17.7491 15 18.5961 15.6512 18.8897 16.5523H21.3023C21.6876 16.5523 22 16.8647 22 17.25C22 17.6353 21.6876 17.9477 21.3023 17.9477H18.8897Z" fill="#13161E"/>
</svg>
