<svg width="24" height="24" viewBox="0 0 24 24" fill="none" xmlns="http://www.w3.org/2000/svg">
<path fill-rule="evenodd" clip-rule="evenodd" d="M15.9535 5.02326C15.9535 3.35356 17.307 2 18.9767 2C20.6464 2 22 3.35356 22 5.02326C22 6.69295 20.6464 8.04651 18.9767 8.04651C18.0446 8.04651 17.2118 7.62457 16.6577 6.9628L7.96684 11.3082C8.01897 11.5307 8.04651 11.7624 8.04651 12C8.04651 12.2376 8.01897 12.4693 7.96684 12.6918L16.6577 17.0372C17.2118 16.3754 18.0446 15.9535 18.9767 15.9535C20.6464 15.9535 22 17.307 22 18.9767C22 20.6464 20.6464 22 18.9767 22C17.307 22 15.9535 20.6464 15.9535 18.9767C15.9535 18.7391 15.981 18.5075 16.0332 18.285L7.34231 13.9395C6.78825 14.6013 5.95542 15.0233 5.02326 15.0233C3.35356 15.0233 2 13.6697 2 12C2 10.3303 3.35356 8.97674 5.02326 8.97674C5.95542 8.97674 6.78825 9.39869 7.34231 10.0605L16.0332 5.71502C15.981 5.49254 15.9535 5.26087 15.9535 5.02326Z" fill="#687086"/>
</svg>
