<svg width="24" height="24" viewBox="0 0 24 24" fill="none" xmlns="http://www.w3.org/2000/svg">
<path fill-rule="evenodd" clip-rule="evenodd" d="M12 3.39535C7.24778 3.39535 3.39535 7.24778 3.39535 12V13.1628L4.60651 13.1628C5.4423 13.1628 6.13925 13.1627 6.69254 13.2371C7.27653 13.3156 7.80379 13.4884 8.22748 13.9121C8.65118 14.3357 8.82389 14.863 8.90241 15.447C8.9768 16.0003 8.97677 16.6972 8.97675 17.533L8.97674 18.5351C8.97675 18.9486 8.97676 19.2937 8.95742 19.5771C8.9373 19.8721 8.89391 20.1507 8.78202 20.4208C8.52238 21.0476 8.02438 21.5456 7.39756 21.8053C7.12743 21.9172 6.8488 21.9606 6.55383 21.9807C6.27047 22 5.92532 22 5.51187 22H5.46488C5.05143 22 4.70628 22 4.42292 21.9807C4.12794 21.9606 3.84931 21.9172 3.57918 21.8053C2.95237 21.5456 2.45436 21.0476 2.19473 20.4208C2.08284 20.1507 2.03945 19.8721 2.01932 19.5771C1.99999 19.2937 1.99999 18.9486 2 18.5351L2 12C2 6.47715 6.47715 2 12 2C17.5228 2 22 6.47715 22 12V18.5351C22 18.9486 22 19.2937 21.9807 19.5771C21.9606 19.8721 21.9172 20.1507 21.8053 20.4208C21.5456 21.0476 21.0476 21.5456 20.4208 21.8053C20.1507 21.9172 19.8721 21.9606 19.5771 21.9807C19.2937 22 18.9486 22 18.5351 22H18.4881C18.0747 22 17.7295 22 17.4462 21.9807C17.1512 21.9606 16.8726 21.9172 16.6024 21.8053C15.9756 21.5456 15.4776 21.0476 15.218 20.4208C15.1061 20.1507 15.0627 19.8721 15.0426 19.5771C15.0232 19.2937 15.0232 18.9486 15.0233 18.5351L15.0233 17.533C15.0232 16.6972 15.0232 16.0003 15.0976 15.447C15.1761 14.863 15.3488 14.3357 15.7725 13.9121C16.1962 13.4884 16.7235 13.3156 17.3075 13.2371C17.8607 13.1627 18.5577 13.1628 19.3935 13.1628L20.6047 13.1628V12C20.6047 7.24778 16.7522 3.39535 12 3.39535ZM20.6047 14.5581H19.4419C18.5451 14.5581 17.9427 14.5596 17.4934 14.62C17.0641 14.6777 16.8804 14.7775 16.7592 14.8987C16.638 15.0199 16.5382 15.2037 16.4805 15.6329C16.4201 16.0823 16.4186 16.6846 16.4186 17.5814V18.5116C16.4186 18.9546 16.419 19.2519 16.4347 19.4821C16.45 19.706 16.4774 19.8151 16.5071 19.8868C16.6251 20.1718 16.8515 20.3981 17.1364 20.5161C17.2082 20.5459 17.3172 20.5733 17.5412 20.5886C17.7714 20.6043 18.0686 20.6047 18.5116 20.6047C18.9546 20.6047 19.2519 20.6043 19.4821 20.5886C19.706 20.5733 19.8151 20.5459 19.8868 20.5161C20.1718 20.3981 20.3981 20.1718 20.5161 19.8868C20.5459 19.8151 20.5733 19.706 20.5886 19.4821C20.6043 19.2519 20.6047 18.9546 20.6047 18.5116V14.5581ZM3.39535 14.5581V18.5116C3.39535 18.9546 3.39573 19.2519 3.41143 19.4821C3.42671 19.706 3.45413 19.8151 3.48386 19.8868C3.60188 20.1718 3.82824 20.3981 4.11316 20.5161C4.18493 20.5459 4.29397 20.5733 4.5179 20.5886C4.7481 20.6043 5.04539 20.6047 5.48837 20.6047C5.93135 20.6047 6.22865 20.6043 6.45885 20.5886C6.68278 20.5733 6.79182 20.5459 6.86359 20.5161C7.1485 20.3981 7.37487 20.1718 7.49288 19.8868C7.52261 19.8151 7.55003 19.706 7.56531 19.4821C7.58102 19.2519 7.5814 18.9546 7.5814 18.5116V17.5814C7.5814 16.6846 7.57991 16.0823 7.5195 15.6329C7.46179 15.2037 7.36205 15.0199 7.24082 14.8987C7.1196 14.7775 6.93588 14.6777 6.50661 14.62C6.05728 14.5596 5.45489 14.5581 4.55814 14.5581H3.39535Z" fill="#13161E"/>
</svg>
