<svg width="24" height="24" viewBox="0 0 24 24" fill="none" xmlns="http://www.w3.org/2000/svg">
<path d="M19.3885 16.8815C19.3885 17.2388 19.6792 17.5285 20.0369 17.5285C20.1394 17.5285 20.2177 17.5155 20.2815 17.5043C20.408 17.482 20.5788 17.4381 20.7637 17.3499C21.15 17.1655 21.565 16.8006 21.7619 16.1428C21.9263 15.5935 21.9965 14.8285 21.9965 14.1088C21.9965 13.3891 21.9263 12.6241 21.7619 12.0748C21.565 11.417 21.15 11.0522 20.7637 10.8678C20.5788 10.7795 20.408 10.7356 20.2815 10.7134C20.2177 10.7021 20.1394 10.6891 20.0369 10.6891C19.6792 10.6891 19.3885 10.9788 19.3885 11.3361V16.8815Z" fill="#1F2533"/>
<path d="M4.60798 16.8815C4.60798 17.2388 4.31728 17.5285 3.95957 17.5285C3.85713 17.5285 3.77877 17.5155 3.71498 17.5043C3.58854 17.482 3.41772 17.4381 3.23281 17.3499C2.84646 17.1655 2.43155 16.8006 2.23465 16.1428C2.07023 15.5935 2 14.8285 2 14.1088C2 13.3891 2.07023 12.6241 2.23465 12.0748C2.43155 11.417 2.84646 11.0522 3.23281 10.8678C3.41772 10.7795 3.58854 10.7356 3.71498 10.7134C3.77877 10.7021 3.85713 10.6891 3.95957 10.6891C4.31728 10.6891 4.60798 10.9788 4.60798 11.3361V16.8815Z" fill="#1F2533"/>
<path fill-rule="evenodd" clip-rule="evenodd" d="M8.16627 6.36968C7.40367 7.66448 7.09971 9.452 7.09971 11.3361V16.8815C7.09971 17.2389 6.81006 17.5285 6.45275 17.5285C6.09544 17.5285 5.80578 17.2389 5.80578 16.8815V11.3361C5.80578 9.35308 6.119 7.29602 7.05135 5.71302C8.0119 4.08213 9.60725 3 11.9982 3C14.3891 3 15.9844 4.08213 16.945 5.71302C17.8773 7.29601 18.1905 9.35308 18.1905 11.3361V16.8815C18.1905 17.9521 17.8664 18.7503 17.1969 19.263C16.5722 19.7414 15.7548 19.881 14.9809 19.9282C14.6242 19.9499 14.3175 19.6784 14.2958 19.3218C14.274 18.9651 14.5455 18.6584 14.9022 18.6367C15.6242 18.5927 16.1078 18.4673 16.4102 18.2357C16.6677 18.0385 16.8966 17.6818 16.8966 16.8815V11.3361C16.8966 9.45199 16.5926 7.66447 15.83 6.36968C15.0957 5.12278 13.9183 4.29393 11.9982 4.29393C10.078 4.29393 8.90066 5.12279 8.16627 6.36968Z" fill="#1F2533"/>
<path d="M13.1929 19.3042C13.1929 19.9972 12.6311 20.5591 11.938 20.5591C11.2449 20.5591 10.6831 19.9972 10.6831 19.3042C10.6831 18.6111 11.2449 18.0492 11.938 18.0492C12.6311 18.0492 13.1929 18.6111 13.1929 19.3042Z" fill="#1F2533"/>
</svg>
