<svg width="24" height="24" viewBox="0 0 24 24" fill="none" xmlns="http://www.w3.org/2000/svg">
<path fill-rule="evenodd" clip-rule="evenodd" d="M12 2C6.47715 2 2 6.47715 2 12C2 17.5228 6.47715 22 12 22C17.5228 22 22 17.5228 22 12C22 6.47715 17.5228 2 12 2ZM3.39535 12C3.39535 7.24776 7.24778 3.39532 12 3.39532C16.7522 3.39532 20.6047 7.24776 20.6047 12C20.6047 16.7522 16.7522 20.6046 12 20.6046C7.24778 20.6046 3.39535 16.7522 3.39535 12Z" fill="white"/>
<path d="M10.9507 6.75C10.9507 6.33579 11.2865 6 11.7007 6C12.1149 6 12.4507 6.33579 12.4507 6.75V12.62L15.5884 15.7577C15.8813 16.0506 15.8813 16.5254 15.5884 16.8183C15.2955 17.1112 14.8206 17.1112 14.5277 16.8183L11.1704 13.461C11.0297 13.3203 10.9507 13.1295 10.9507 12.9306V6.75Z" fill="white"/>
</svg>
