<svg width="20" height="20" viewBox="0 0 20 20" fill="none" xmlns="http://www.w3.org/2000/svg">
<path fill-rule="evenodd" clip-rule="evenodd" d="M0 10C0 4.47715 4.47715 0 10 0C15.5228 0 20 4.47715 20 10C20 15.5228 15.5228 20 10 20C4.47715 20 0 15.5228 0 10ZM9.61118 3.70575C9.17488 3.70575 8.82119 4.05944 8.82119 4.49574V11.0059C8.82119 11.2154 8.90442 11.4164 9.05257 11.5645L12.589 15.1009C12.8975 15.4094 13.3977 15.4094 13.7062 15.1009C14.0147 14.7924 14.0147 14.2922 13.7062 13.9837L10.4012 10.6787V4.49574C10.4012 4.05944 10.0475 3.70575 9.61118 3.70575Z" fill="#B7C1DD"/>
</svg>
