<svg width="24" height="24" viewBox="0 0 24 24" fill="none" xmlns="http://www.w3.org/2000/svg">
<path d="M17.3488 14.9103C17.991 14.9103 18.5116 14.365 18.5116 13.6923C18.5116 13.0197 17.991 12.4744 17.3488 12.4744C16.7066 12.4744 16.186 13.0197 16.186 13.6923C16.186 14.365 16.7066 14.9103 17.3488 14.9103Z" fill="#13161E"/>
<path fill-rule="evenodd" clip-rule="evenodd" d="M9.26034 2H8.22803C6.95586 1.99999 5.93044 1.99997 5.12395 2.11354C4.28663 2.23144 3.58163 2.4837 3.02173 3.0702C2.4618 3.65668 2.22098 4.39512 2.10839 5.27214C1.99997 6.11688 1.99997 7.19093 2 8.52346V14.4765C1.99997 15.8091 1.99997 16.8831 2.10839 17.7279C2.22098 18.6049 2.4618 19.3433 3.02173 19.9298C3.58163 20.5163 4.28663 20.7686 5.12395 20.8865C5.93044 21 6.95586 21 8.22803 21H15.772C17.0441 21 18.0696 21 18.8761 20.8865C19.7134 20.7686 20.4184 20.5163 20.9783 19.9298C21.5382 19.3433 21.779 18.6049 21.8916 17.7279C22 16.8831 22 15.8091 22 14.4765V12.4209C22 11.0884 22 10.0143 21.8916 9.16957C21.779 8.29255 21.5382 7.55411 20.9783 6.96763C20.4184 6.38114 19.7134 6.12888 18.8761 6.01096C18.0696 5.89741 17.0441 5.89742 15.772 5.89744H15.4399C15.362 4.72683 15.1457 3.78146 14.4666 3.0702C13.9067 2.4837 13.2017 2.23144 12.3644 2.11354C11.5579 1.99997 10.5325 1.99999 9.26034 2ZM15.7209 7.35897C17.0561 7.35897 17.9875 7.36052 18.6901 7.45948C19.3727 7.5556 19.7342 7.73142 19.9916 8.00109C20.2491 8.27076 20.4169 8.64936 20.5087 9.36432C20.6032 10.1003 20.6047 11.0758 20.6047 12.4744V14.4231C20.6047 15.8217 20.6032 16.7971 20.5087 17.5331C20.4169 18.2481 20.2491 18.6267 19.9916 18.8963C19.7342 19.166 19.3727 19.3418 18.6901 19.438C17.9875 19.5369 17.0562 19.5385 15.7209 19.5385H8.27907C6.94379 19.5385 6.01254 19.5369 5.30989 19.438C4.62729 19.3418 4.26582 19.166 4.00837 18.8963C3.75091 18.6267 3.58308 18.2481 3.4913 17.5331C3.39683 16.7971 3.39535 15.8217 3.39535 14.4231V8.57692C3.39535 7.17832 3.39683 6.20287 3.4913 5.46689C3.58308 4.75192 3.75091 4.37332 4.00837 4.10365C4.26582 3.83399 4.62729 3.65816 5.30989 3.56204C6.01254 3.46308 6.94379 3.46154 8.27907 3.46154H9.2093C10.5446 3.46154 11.4758 3.46308 12.1785 3.56204C12.8611 3.65816 13.2225 3.83399 13.48 4.10365C13.7918 4.43025 13.9633 4.90472 14.0397 5.89744H6.41861C6.03329 5.89744 5.72093 6.22461 5.72093 6.6282C5.72093 7.0318 6.03329 7.35897 6.41861 7.35897H15.7209Z" fill="#13161E"/>
</svg>
