<svg width="24" height="24" viewBox="0 0 24 24" fill="none" xmlns="http://www.w3.org/2000/svg">
<path fill-rule="evenodd" clip-rule="evenodd" d="M2 22C2.54171 20.2468 3.16958 18.5799 3.7436 16.8592C-0.0614822 10.1878 4.6475 2.67745 11.0256 2.05359C17.0476 1.46448 21.985 5.80058 22 11.7183C22.0157 17.9624 15.9746 23.2057 9.17944 21.0745C8.66686 20.9138 8.03263 20.39 7.43584 20.3548C6.60179 20.3056 5.50873 20.9059 4.66658 21.1774C3.74349 21.4751 2.94083 21.7734 2 22ZM7.64099 18.5042C13.1283 21.8427 19.699 18.0981 20.2564 12.6437C20.7608 7.70591 16.8279 3.31242 11.5384 3.69865C5.49971 4.13948 1.8724 11.3655 5.58967 16.6535C5.2606 17.5575 4.95267 18.4826 4.66658 19.4296C5.67409 19.1371 6.60282 18.7658 7.64099 18.5042Z" fill="#13161E"/>
<path fill-rule="evenodd" clip-rule="evenodd" d="M9.79492 7.0916C10.3721 8.3019 11.2649 10.0921 9.79492 10.8959C10.5415 12.478 11.7758 13.5712 13.3846 14.2888C13.9196 13.9341 14.2709 13.3951 14.718 12.9523C15.6518 13.3184 16.5248 13.7456 17.282 14.2888C17.3598 16.0576 15.873 16.7117 14.6154 16.6536C11.9623 16.5312 8.31576 13.1711 7.43596 10.6902C6.91385 9.21822 7.51433 6.40275 9.79492 7.0916Z" fill="#13161E"/>
</svg>
